<?xml version="1.0" encoding="UTF-8" standalone="no"?>
<!-- Generator: Adobe Illustrator 13.0.0, SVG Export Plug-In . SVG Version: 6.00 Build 14948)  -->

<svg
   xmlns:dc="http://purl.org/dc/elements/1.1/"
   xmlns:cc="http://creativecommons.org/ns#"
   xmlns:rdf="http://www.w3.org/1999/02/22-rdf-syntax-ns#"
   xmlns:svg="http://www.w3.org/2000/svg"
   xmlns="http://www.w3.org/2000/svg"
   xmlns:sodipodi="http://sodipodi.sourceforge.net/DTD/sodipodi-0.dtd"
   xmlns:inkscape="http://www.inkscape.org/namespaces/inkscape"
   version="1.0"
   id="Ebene_1"
   x="0px"
   y="0px"
   width="228.473px"
   height="40.655px"
   viewBox="0 0 228.473 40.655"
   enable-background="new 0 0 228.473 40.655"
   xml:space="preserve"
   inkscape:version="0.92.4 (5da689c313, 2019-01-14)"
   sodipodi:docname="logo.svg"><metadata
     id="metadata25"><rdf:RDF><cc:Work
         rdf:about=""><dc:format>image/svg+xml</dc:format><dc:type
           rdf:resource="http://purl.org/dc/dcmitype/StillImage" /><dc:title></dc:title></cc:Work></rdf:RDF></metadata><defs
     id="defs23" /><sodipodi:namedview
     pagecolor="#ffffff"
     bordercolor="#666666"
     borderopacity="1"
     objecttolerance="10"
     gridtolerance="10"
     guidetolerance="10"
     inkscape:pageopacity="0"
     inkscape:pageshadow="2"
     inkscape:window-width="1920"
     inkscape:window-height="1018"
     id="namedview21"
     showgrid="false"
     inkscape:zoom="1.7201157"
     inkscape:cx="-16.859333"
     inkscape:cy="20.327499"
     inkscape:window-x="-8"
     inkscape:window-y="-8"
     inkscape:window-maximized="1"
     inkscape:current-layer="Ebene_1" /><g
     id="g831"><g
       style="fill:#ffffff"
       id="g4153"><path
         style="fill:#ffffff"
         inkscape:connector-curvature="0"
         d="m 222.73,10.716 h 0.003 c 1.373,0 2.619,-0.559 3.519,-1.459 v 10e-4 c 0.899,-0.899 1.456,-2.141 1.456,-3.512 V 5.739 5.735 c 0,-1.373 -0.557,-2.617 -1.457,-3.515 -0.898,-0.898 -2.142,-1.456 -3.514,-1.457 h -0.007 -0.003 c -1.373,0 -2.617,0.557 -3.517,1.457 -0.897,0.899 -1.454,2.141 -1.456,3.512 v 0.007 0.002 c 0,1.374 0.558,2.618 1.456,3.517 h 0.003 c 0.898,0.899 2.141,1.457 3.511,1.458 z m 0.003,0.763 h -0.003 -0.006 c -1.581,-0.002 -3.015,-0.644 -4.052,-1.681 l 0.002,-10e-4 C 217.635,8.759 216.991,7.323 216.99,5.741 V 5.739 5.732 c 0.001,-1.581 0.644,-3.013 1.681,-4.049 C 219.71,0.644 221.146,0 222.728,0 h 0.003 0.007 c 1.581,0.002 3.015,0.644 4.051,1.679 1.04,1.039 1.685,2.474 1.685,4.056 v 0.004 0.006 c -10e-4,1.58 -0.644,3.013 -1.681,4.05 v 0.002 c -1.038,1.038 -2.475,1.682 -4.06,1.682 z"
         id="path3" /><path
         style="clip-rule:evenodd;fill:#ffffff;fill-rule:evenodd"
         inkscape:connector-curvature="0"
         d="m 219.769,2.294 h 3.622 c 1.907,0 2.35,1.695 2.35,2.311 0,0.791 -0.639,1.707 -1.346,1.948 l 1.945,2.565 h -1.608 l -1.612,-2.37 h -1.883 v 2.37 h -1.468 z m 3.51,3.151 c 0.394,0 1.11,-0.125 1.11,-0.834 0,-0.634 -0.154,-0.938 -0.999,-0.938 h -2.154 v 1.772 z"
         id="path5" /><path
         style="clip-rule:evenodd;fill:#ffffff;fill-rule:evenodd"
         inkscape:connector-curvature="0"
         d="m 38.029,9.769 -10.17,10.742 -6.717,-4.605 c 0,0 2.21,-2.109 0.194,-3.645 -1.572,-1.198 -5.982,1.343 -5.791,6.332 0.224,5.755 3.78,9.015 7.708,9.015 3.648,0 4.606,-2.941 4.606,-2.941 h 8.173 v 6.781 L 47.522,1.135 H 60.665 L 71.218,28.38 c 0,0 0.767,1.436 1.534,1.82 0,0 0.044,-17.872 0.044,-18.374 0,-0.5 -0.066,-1.053 -0.379,-1.412 C 71.902,9.821 71.025,9.575 71.025,9.575 v -8.44 c 0,0 12.179,0 18.417,0 9.553,0 12.003,2.59 14.773,7.579 3.824,-5.149 9.089,-8.539 16.596,-8.539 7.723,0 13.188,2.847 16.309,7.578 4.359,-5.211 11.375,-7.626 17.795,-7.626 7.89,0 14.479,3.824 17.889,9.737 V 1.135 h 17.745 l 1.87,4.746 1.393,-4.746 h 18.322 v 8.248 c 0,0 -1.057,0.29 -1.349,0.766 -0.284,0.47 -0.234,1.97 -0.234,1.97 l 2.556,16.304 c 0.107,0.53 0.296,1.084 0.753,1.49 0.53,0.474 1.246,0.385 1.246,0.385 v 9.398 h -18.417 v -7.099 h -10.551 v 7.118 h -17.315 v -4.627 c 0,0 -6.328,5.566 -14.484,5.566 -10.438,0 -17.412,-7.673 -17.412,-7.673 v 6.714 c 0,0 -0.766,0 -12.276,0 -10.927,0 -20.307,-5.979 -22.927,-16.883 -1.242,1.188 -6.719,5.098 -13.287,6.571 -0.511,0.115 -0.766,0.306 -0.766,0.86 0,1.01 2.158,1.37 2.158,1.37 v 8.081 c 0,0 -56.788,0 -67.338,0 C 10.019,39.696 0,31.159 0,20.32 0,9.48 7.811,0.27 20.76,0.27 c 12.376,0 17.269,9.499 17.269,9.499 z"
         id="path7" /><path
         style="clip-rule:evenodd;fill:#ffffff;fill-rule:evenodd"
         inkscape:connector-curvature="0"
         d="m 33.183,9.937 -5.418,5.681 c 0,0 -0.288,0.145 -0.527,0.145 -0.241,0 -0.578,-0.241 -0.578,-0.241 l -0.67,-0.573 c 0,0 -0.193,-0.047 -0.193,-0.241 0,-0.189 0.528,-0.672 0.528,-1.583 0,-0.912 -0.191,-4.701 -6.042,-4.701 -5.851,0 -8.441,5.468 -8.441,9.977 0,4.509 2.78,12.758 11.896,12.758 5.301,0 6.424,-2.976 6.424,-2.976 h 1.822 v 7.772 H 22.009 C 10.115,35.955 3.495,26.648 3.495,19.934 3.495,9.639 12.447,3.926 20.57,3.926 28.436,3.927 33.183,9.937 33.183,9.937 Z"
         id="path9" /><path
         style="clip-rule:evenodd;fill:#ffffff;fill-rule:evenodd"
         inkscape:connector-curvature="0"
         d="m 49.972,4.781 h 8.201 l 9.977,26.092 c 0.286,0.717 0.766,1.393 1.245,1.965 0.478,0.576 1.63,0.962 1.63,0.962 v 2.251 H 58.99 v -2.302 c 0,0 0.765,0.099 1.15,-0.574 0.383,-0.672 0.383,-1.199 0.097,-1.87 C 59.949,30.632 57.93,25.31 57.93,25.31 H 48.1 c 0,0 -2.013,5.371 -2.207,5.85 -0.192,0.479 -0.192,1.248 0,1.726 0.319,0.798 1.44,0.915 1.44,0.915 v 2.251 h -9.642 v -2.251 c 0,0 0.877,-0.302 1.535,-0.962 0.719,-0.719 0.958,-1.488 0.958,-1.488 z M 49.73,20.416 h 6.333 l -3.261,-9.112 z"
         id="path11" /><path
         style="clip-rule:evenodd;fill:#ffffff;fill-rule:evenodd"
         inkscape:connector-curvature="0"
         d="m 74.862,4.781 c 0,0 9.688,0 15.349,0 5.66,0 11.318,2.012 11.318,8.535 0,6.523 -4.125,8.827 -7.673,10.458 -4.097,1.882 -9.496,3.358 -9.496,3.358 v 4.986 c 0,0 0.048,0.337 0.527,0.909 0.481,0.576 1.008,0.721 1.008,0.721 V 36.05 H 74.767 v -2.251 c 0,0 0.671,-0.146 1.153,-0.625 0.478,-0.48 0.576,-1.056 0.576,-1.056 V 9.576 c 0,0 0.044,-0.96 -0.337,-1.342 C 75.776,7.847 74.863,7.322 74.863,7.322 V 4.781 Z m 9.593,4.699 v 13.333 c 0,0 9.016,-3.74 9.016,-9.016 0,-6.523 -9.016,-4.317 -9.016,-4.317 z"
         id="path13" /><path
         style="clip-rule:evenodd;fill:#ffffff;fill-rule:evenodd"
         inkscape:connector-curvature="0"
         d="m 134.769,9.992 -5.42,5.681 c 0,0 -0.288,0.144 -0.528,0.144 -0.238,0 -0.574,-0.24 -0.574,-0.24 L 127.574,15 c 0,0 -0.191,-0.045 -0.191,-0.236 0,-0.193 0.526,-0.676 0.526,-1.583 0,-0.913 -0.189,-4.702 -6.042,-4.702 -5.853,0 -8.442,5.466 -8.442,9.976 0,4.506 2.782,12.758 11.897,12.758 5.301,0 6.425,-2.975 6.425,-2.975 h 1.824 v 7.77 h -9.979 c -11.893,0 -18.514,-9.304 -18.514,-16.019 0,-10.294 8.951,-16.009 17.075,-16.009 7.867,0 12.616,6.012 12.616,6.012 z"
         id="path15" /><path
         style="clip-rule:evenodd;fill:#ffffff;fill-rule:evenodd"
         inkscape:connector-curvature="0"
         d="m 154.195,36.951 c -10.362,0 -17.809,-7.566 -17.809,-16.773 0,-9.213 7.64,-16.348 17.809,-16.348 10.165,0 17.805,7.135 17.805,16.348 0,9.206 -7.448,16.773 -17.805,16.773 z M 144.983,20.32 c 0,9.209 4.701,11.511 9.212,11.511 4.505,0 9.304,-2.878 9.304,-11.511 0,-8.632 -5.372,-11.511 -9.304,-11.511 -3.934,0 -9.212,2.3 -9.212,11.511 z"
         id="path17" /><path
         style="clip-rule:evenodd;fill:#ffffff;fill-rule:evenodd"
         inkscape:connector-curvature="0"
         d="m 176.638,4.801 h 11.417 l 4.125,12.738 4.411,-12.758 h 11.941 V 6.65 c 0,0 -0.794,0.336 -1.147,0.768 -0.432,0.528 -0.432,0.911 -0.337,1.681 0.096,0.765 3.165,21.582 3.262,22.35 0.097,0.768 0.191,1.199 0.383,1.727 0.19,0.523 1.104,0.957 1.104,0.957 v 1.935 H 200.332 V 33.99 c 0,0 1.007,-0.143 1.345,-0.625 0.336,-0.48 0.478,-0.768 0.383,-1.534 -0.096,-0.767 -2.828,-18.226 -2.828,-18.226 l -4.989,15.444 H 188.2 l -4.942,-14.487 -2.493,17.076 c 0,0 -0.097,1.025 0.288,1.584 0.527,0.768 1.489,0.768 1.489,0.768 v 2.061 h -9.932 v -2.203 c 0,0 0.791,-0.122 1.366,-0.795 0.575,-0.669 0.672,-1.535 0.672,-1.535 L 178.271,9 c 0,0 0.217,-0.841 -0.024,-1.223 -0.253,-0.404 -1.608,-0.743 -1.608,-0.743 V 4.801 Z"
         id="path19" /></g></g></svg>