<?xml version="1.0" encoding="UTF-8" standalone="no"?>
<!-- Generator: Adobe Illustrator 21.1.0, SVG Export Plug-In . SVG Version: 6.00 Build 0)  -->

<svg
   xmlns:dc="http://purl.org/dc/elements/1.1/"
   xmlns:cc="http://creativecommons.org/ns#"
   xmlns:rdf="http://www.w3.org/1999/02/22-rdf-syntax-ns#"
   xmlns:svg="http://www.w3.org/2000/svg"
   xmlns="http://www.w3.org/2000/svg"
   xmlns:sodipodi="http://sodipodi.sourceforge.net/DTD/sodipodi-0.dtd"
   xmlns:inkscape="http://www.inkscape.org/namespaces/inkscape"
   version="1.0"
   id="Capa_1"
   x="0px"
   y="0px"
   width="568.09998"
   height="71.300003"
   viewBox="0 0 568.09996 71.300004"
   enable-background="new 0 0 574.7 121.1"
   xml:space="preserve"
   sodipodi:docname="logo.svg"
   inkscape:version="0.92.4 (5da689c313, 2019-01-14)"><metadata
     id="metadata43"><rdf:RDF><cc:Work
         rdf:about=""><dc:format>image/svg+xml</dc:format><dc:type
           rdf:resource="http://purl.org/dc/dcmitype/StillImage" /><dc:title></dc:title></cc:Work></rdf:RDF></metadata><defs
     id="defs41" /><sodipodi:namedview
     pagecolor="#ffffff"
     bordercolor="#666666"
     borderopacity="1"
     objecttolerance="10"
     gridtolerance="10"
     guidetolerance="10"
     inkscape:pageopacity="0"
     inkscape:pageshadow="2"
     inkscape:window-width="1920"
     inkscape:window-height="1018"
     id="namedview39"
     showgrid="false"
     fit-margin-top="0"
     fit-margin-left="0"
     fit-margin-right="0"
     fit-margin-bottom="0"
     inkscape:zoom="0.47503044"
     inkscape:cx="-502.36283"
     inkscape:cy="37.649998"
     inkscape:window-x="-8"
     inkscape:window-y="-8"
     inkscape:window-maximized="1"
     inkscape:current-layer="Capa_1" /><g
     id="g847"><g
       style="fill:#ffffff"
       transform="translate(-4.5,-26.9)"
       id="g36"><path
         style="fill:#ffffff"
         d="M 34.7,26.9 V 37.4 H 15.1 V 50.2 H 34.7 V 61 H 15.1 V 83.7 H 4.5 V 26.9 Z"
         id="polygon2"
         inkscape:connector-curvature="0" /><path
         style="fill:#ffffff"
         inkscape:connector-curvature="0"
         id="path4"
         d="M 69,83.7 H 58.7 V 74.9 H 38.8 l -5.9,8.8 H 20.8 L 60.6,26.9 H 69 Z M 58.7,64.1 V 47.5 L 46.5,64.1 Z" /><path
         style="fill:#ffffff"
         d="M 83.6,83.7 H 73 V 26.9 h 11.9 l 16.8,38.2 16.9,-38.2 h 12.1 V 83.7 H 120 V 55.1 L 106.9,83.7 H 96.2 L 83.6,55.1 Z"
         id="polygon6"
         inkscape:connector-curvature="0" /><path
         style="fill:#ffffff"
         d="M 339,83.7 H 328.4 V 26.9 h 11.9 L 357.1,65.1 374,26.9 h 12.1 V 83.7 H 375.5 V 55.1 L 362.4,83.7 H 351.6 L 339,55.1 Z"
         id="polygon8"
         inkscape:connector-curvature="0" /><path
         style="fill:#ffffff"
         d="m 134,26.9 h 11 v 56.799999 h -11 z"
         id="rect10"
         inkscape:connector-curvature="0" /><path
         style="fill:#ffffff"
         d="M 148,83.7 V 26.9 h 11 v 46.4 h 14.3 v 10.4 z"
         id="polygon12"
         inkscape:connector-curvature="0" /><path
         style="fill:#ffffff"
         d="M 184.8,50.2 196,26.9 h 12.1 L 189.9,63 V 83.7 H 179.3 V 63 L 161.1,26.9 h 12.2 z"
         id="polygon14"
         inkscape:connector-curvature="0" /><path
         style="fill:#ffffff"
         inkscape:connector-curvature="0"
         id="path16"
         d="M 267.9,69" /><path
         style="fill:#ffffff"
         inkscape:connector-curvature="0"
         id="path18"
         d="M 267.8,42.6 C 263,33.4 253.4,27.2 242.3,27.2 c -15.9,0 -28.8,12.9 -28.8,28.8 0,15.9 12.9,28.8 28.8,28.8 11.2,0 20.9,-6.4 25.6,-15.6 l -13.1,0.1 c -3.2,3 -7.5,4.8 -12.2,4.8 -10,0 -18.1,-8.1 -18.1,-18.1 0,-10 8.1,-18.1 18.1,-18.1 4.7,0 8.9,1.8 12.1,4.7 z" /><path
         style="fill:#ffffff"
         inkscape:connector-curvature="0"
         id="path20"
         d="m 296.3,84.9 c -16,0 -29,-13 -29,-29 0,-16 13,-29 29,-29 16,0 29,13 29,29 0,16 -13,29 -29,29 z m 18.4,-29 c 0,-10.1 -8.2,-18.3 -18.3,-18.3 -10.1,0 -18.3,8.2 -18.3,18.3 0,10.1 8.2,18.3 18.3,18.3 10.1,0.1 18.3,-8.1 18.3,-18.3 z" /><path
         style="fill:#ffffff"
         inkscape:connector-curvature="0"
         id="path22"
         d="m 408.7,26.9 c 9.6,0.8 17.2,8.8 17.2,18.6 0,9.8 -7.6,17.8 -17.2,18.6 h -8.3 V 83.7 H 389.8 V 26.9 h 10.6 z m -8.3,10.9 v 15.4 h 8.3 c 3.6,-0.7 6.4,-3.9 6.4,-7.7 0,-3.8 -2.7,-7 -6.4,-7.7 z" /><path
         style="fill:#ffffff"
         inkscape:connector-curvature="0"
         id="path24"
         d="m 542.8,84.4 h -10.5 v -57 h 14.6 8.3 c 9.6,0.8 17.2,8.8 17.2,18.6 0,8 -5,14.8 -12.1,17.5 l 12.3,20.9 H 561 L 543.8,55 h -1 z m -6.6,-0.3 m 10.7,0 m 8.3,-30.4 c 3.6,-0.7 6.4,-3.9 6.4,-7.7 0,-3.8 -2.7,-7 -6.4,-7.7 h -12.4 v 15.4 z" /><path
         style="fill:#ffffff"
         inkscape:connector-curvature="0"
         id="path26"
         d="m 455.1,49.1 m 0,0 m -15.3,0 m -0.1,10.6 m 0,8.3 c 0.7,3.6 3.9,6.4 7.7,6.4 3.8,0 7,-2.7 7.7,-6.4 V 27.4 H 466 V 59.7 68 c -0.8,9.6 -8.8,17.2 -18.6,17.2 -9.8,0 -17.8,-7.6 -18.6,-17.2 V 59.7 27.4 h 10.9 z" /><path
         style="fill:#ffffff"
         d="M 497.3,38.1 V 27.4 h -29.7 v 10.7 h 9.3 v 46.3 h 10.8 V 38.1 Z"
         id="polygon28"
         inkscape:connector-curvature="0" /><path
         style="fill:#ffffff"
         d="m 529.5,73.9 v 10.5 h -29.6 v -57 h 29.6 v 10.4 h -19 v 13.6 h 19 V 62 h -19 v 11.9 z"
         id="polygon30"
         inkscape:connector-curvature="0" /><path
         style="fill:#ffffff"
         inkscape:connector-curvature="0"
         id="path32"
         d="M 542.8,55.1" /><path
         style="fill:#ffffff"
         d="M 572.5,92.7 H 4.5 v 5.5 H 561 Z"
         id="polygon34"
         inkscape:connector-curvature="0" /></g></g></svg>