<?xml version="1.0" encoding="UTF-8" standalone="no"?>
<svg
   xmlns:dc="http://purl.org/dc/elements/1.1/"
   xmlns:cc="http://creativecommons.org/ns#"
   xmlns:rdf="http://www.w3.org/1999/02/22-rdf-syntax-ns#"
   xmlns:svg="http://www.w3.org/2000/svg"
   xmlns="http://www.w3.org/2000/svg"
   xmlns:xlink="http://www.w3.org/1999/xlink"
   xmlns:sodipodi="http://sodipodi.sourceforge.net/DTD/sodipodi-0.dtd"
   xmlns:inkscape="http://www.inkscape.org/namespaces/inkscape"
   viewBox="0 0 600.27198 171.83996"
   height="171.83997"
   width="600.27197"
   xml:space="preserve"
   version="1.1"
   id="svg2"
   sodipodi:docname="logo.svg"
   inkscape:version="0.92.4 (5da689c313, 2019-01-14)"><sodipodi:namedview
     pagecolor="#ffffff"
     bordercolor="#666666"
     borderopacity="1"
     objecttolerance="10"
     gridtolerance="10"
     guidetolerance="10"
     inkscape:pageopacity="0"
     inkscape:pageshadow="2"
     inkscape:window-width="1920"
     inkscape:window-height="1018"
     id="namedview52"
     showgrid="false"
     inkscape:zoom="1.1421655"
     inkscape:cx="281.23759"
     inkscape:cy="34.838317"
     inkscape:window-x="-8"
     inkscape:window-y="-8"
     inkscape:window-maximized="1"
     inkscape:current-layer="g1476" /><metadata
     id="metadata8"><rdf:RDF><cc:Work
         rdf:about=""><dc:format>image/svg+xml</dc:format><dc:type
           rdf:resource="http://purl.org/dc/dcmitype/StillImage" /><dc:title></dc:title></cc:Work></rdf:RDF></metadata><defs
     id="defs6"><clipPath
       id="clipPath16"
       clipPathUnits="userSpaceOnUse"><path
         id="path18"
         d="M 0,618.062 H 1949.984 V 0 H 0 Z"
         inkscape:connector-curvature="0" /></clipPath><linearGradient
       id="linearGradient2460"
       y2="44.984001"
       gradientUnits="userSpaceOnUse"
       x2="19.360001"
       y1="21.030804"
       x1="19.244999"><stop
         id="stop3602"
         style="stop-color:#fafafa;stop-opacity:1;"
         offset="0" /><stop
         id="stop3604"
         style="stop-color:#f0f0f0;stop-opacity:1;"
         offset="1" /></linearGradient><linearGradient
       gradientTransform="matrix(1.0058652,0,0,0.994169,100,0)"
       gradientUnits="userSpaceOnUse"
       id="ButtonShadow-0-1-1-5-9"
       y2="7.0165396"
       x2="45.447727"
       y1="92.539597"
       x1="45.447727"><stop
         offset="0"
         style="stop-color:#000000;stop-opacity:1"
         id="stop3750-8-9-3-6-4" /><stop
         offset="1"
         style="stop-color:#000000;stop-opacity:0.58823532"
         id="stop3752-5-6-4-2-9" /></linearGradient><linearGradient
       id="linearGradient3737-9"><stop
         offset="0"
         style="stop-color:#ffffff;stop-opacity:1"
         id="stop3739-7" /><stop
         offset="1"
         style="stop-color:#ffffff;stop-opacity:0"
         id="stop3741-4" /></linearGradient><linearGradient
       id="linearGradient4046-3"><stop
         offset="0"
         style="stop-color:#000000;stop-opacity:1;"
         id="stop4048-7" /><stop
         offset="1"
         style="stop-color:#ffffff;stop-opacity:0.2"
         id="stop4050-73" /></linearGradient><linearGradient
       id="linearGradient3875"><stop
         id="stop3877"
         style="stop-color:#3e8116;stop-opacity:1"
         offset="0" /><stop
         id="stop3879"
         style="stop-color:#66ae3b;stop-opacity:1"
         offset="1" /></linearGradient><linearGradient
       id="linearGradient3869"><stop
         id="stop3871"
         style="stop-color:#958741;stop-opacity:1"
         offset="0" /><stop
         id="stop3873"
         style="stop-color:#b4ba66;stop-opacity:1"
         offset="1" /></linearGradient><linearGradient
       id="linearGradient3809"><stop
         id="stop3811"
         style="stop-color:#ffbd2a;stop-opacity:1"
         offset="0" /><stop
         id="stop3813"
         style="stop-color:#ffe62a;stop-opacity:1"
         offset="1" /></linearGradient><linearGradient
       x1="48"
       y1="20.220806"
       x2="48"
       y2="138.66119"
       id="linearGradient3613"
       xlink:href="#linearGradient3737-9"
       gradientUnits="userSpaceOnUse" /><clipPath
       id="clipPath3613"><rect
         width="84"
         height="84"
         rx="6"
         ry="6"
         x="6"
         y="6"
         id="rect3615"
         style="fill:#ffffff;fill-opacity:1;fill-rule:nonzero;stroke:none" /></clipPath><filter
       x="-0.192"
       y="-0.192"
       width="1.3839999"
       height="1.3839999"
       color-interpolation-filters="sRGB"
       id="filter3794"><feGaussianBlur
         id="feGaussianBlur3796"
         stdDeviation="5.28" /></filter><filter
       x="-0.192"
       y="-0.192"
       width="1.3839999"
       height="1.3839999"
       color-interpolation-filters="sRGB"
       id="filter3794-0"><feGaussianBlur
         id="feGaussianBlur3796-6"
         stdDeviation="5.28" /></filter><linearGradient
       id="linearGradient3971"><stop
         id="stop3973"
         style="stop-color:#4d4d4d;stop-opacity:1"
         offset="0" /><stop
         id="stop3975"
         style="stop-color:#333333;stop-opacity:1"
         offset="1" /></linearGradient><linearGradient
       id="linearGradient4549"><stop
         id="stop4551"
         style="stop-color:#c4c4c4;stop-opacity:1"
         offset="0" /><stop
         id="stop4553"
         style="stop-color:#f1f1f1;stop-opacity:1"
         offset="1" /></linearGradient><linearGradient
       id="linearGradient4631"><stop
         id="stop4633"
         style="stop-color:#c3b194;stop-opacity:1"
         offset="0" /><stop
         id="stop4635"
         style="stop-color:#e1c497;stop-opacity:1"
         offset="1" /></linearGradient><linearGradient
       id="linearGradient4541"><stop
         id="stop4543"
         style="stop-color:#dc6819;stop-opacity:1"
         offset="0" /><stop
         id="stop4545"
         style="stop-color:#efa471;stop-opacity:1"
         offset="1" /></linearGradient><linearGradient
       inkscape:collect="always"
       xlink:href="#linearGradient4549"
       id="linearGradient4389"
       gradientUnits="userSpaceOnUse"
       gradientTransform="translate(18,0)"
       x1="46"
       y1="70"
       x2="46"
       y2="64" /><linearGradient
       y2="5.9877172"
       x2="48"
       y1="90"
       x1="48"
       gradientTransform="matrix(5.6190476,0,0,5.6190476,-33.714286,-33.714286)"
       gradientUnits="userSpaceOnUse"
       id="linearGradient6305"
       xlink:href="#linearGradient3875"
       inkscape:collect="always" /><linearGradient
       y2="5.9877172"
       x2="48"
       y1="90"
       x1="48"
       gradientTransform="matrix(5.6190476,0,0,7.8666666,-213.52381,-47.2)"
       gradientUnits="userSpaceOnUse"
       id="linearGradient6338"
       xlink:href="#linearGradient3869"
       inkscape:collect="always" /><linearGradient
       inkscape:collect="always"
       xlink:href="#linearGradient4549"
       id="linearGradient6359"
       gradientUnits="userSpaceOnUse"
       gradientTransform="matrix(5.6190476,0,0,5.6190476,87.428572,-13.714285)"
       x1="46"
       y1="70"
       x2="46"
       y2="64" /><linearGradient
       inkscape:collect="always"
       xlink:href="#linearGradient4549"
       id="linearGradient6362"
       gradientUnits="userSpaceOnUse"
       gradientTransform="matrix(5.6190476,0,0,5.6190476,53.714286,-13.714285)"
       x1="46"
       y1="70"
       x2="46"
       y2="64" /><linearGradient
       inkscape:collect="always"
       xlink:href="#linearGradient4549"
       id="linearGradient6365"
       gradientUnits="userSpaceOnUse"
       gradientTransform="matrix(5.6190476,0,0,5.6190476,20.000001,-13.714285)"
       x1="46"
       y1="70"
       x2="46"
       y2="64" /><linearGradient
       inkscape:collect="always"
       xlink:href="#linearGradient4541"
       id="linearGradient6474"
       gradientUnits="userSpaceOnUse"
       x1="52.76535"
       y1="81.843025"
       x2="52.76535"
       y2="73.811729"
       gradientTransform="matrix(5.6190476,0,0,5.6190476,-13.714285,-13.714285)" /><linearGradient
       inkscape:collect="always"
       xlink:href="#linearGradient4549"
       id="linearGradient6484"
       gradientUnits="userSpaceOnUse"
       x1="46"
       y1="70"
       x2="46"
       y2="64"
       gradientTransform="matrix(5.6190476,0,0,5.6190476,-13.714285,-13.714285)" /><linearGradient
       y2="5.9877172"
       x2="48"
       y1="90"
       x1="48"
       gradientTransform="matrix(5.6190476,0,0,5.6190476,-33.71428,-33.714286)"
       gradientUnits="userSpaceOnUse"
       id="linearGradient6631"
       xlink:href="#linearGradient3875"
       inkscape:collect="always" /></defs><g
     id="g1476"
     transform="matrix(0.11555437,0,0,0.11555437,375.56619,78.122116)"><g
       transform="translate(0,-540.36218)"
       inkscape:label="Livello 1"
       id="layer1" /><g
       transform="matrix(1.1,0,0,0.44444,95.081063,256.39254)"
       id="g2036"><g
         transform="matrix(1.0526,0,0,1.2857,-1.2632,-13.429)"
         style="opacity:0.4"
         id="g3712" /></g><g
       id="g3541"
       transform="translate(97.481063,231.28154)" /><g
       id="g3536"
       transform="translate(97.481063,231.28154)" /><g
       transform="translate(-605.51932,-353.96833)"
       id="g4076"><g
         id="g4038"
         transform="translate(-926.66758,684.38448)" /></g><g
       id="g1273"><g
         aria-label="setup"
         transform="matrix(8.6539349,0,0,8.6539349,-3214.2033,-645.52631)"
         style="font-style:normal;font-variant:normal;font-weight:normal;font-stretch:normal;font-size:183.99479675px;line-height:1.25;font-family:'BankGothic Lt BT';-inkscape-font-specification:'BankGothic Lt BT';letter-spacing:0px;word-spacing:0px;fill:#ffffff;fill-opacity:1;stroke:none;stroke-width:4.59986973"
         id="text909"><path
           d="M 109.66371,83.992219 H 54.950411 v 20.214271 h 50.041549 q 10.96063,0 14.91365,3.86317 4.04285,3.77333 4.04285,14.55428 v 9.34348 q 0,10.78095 -3.95301,14.64412 -3.86318,3.77333 -15.00349,3.77333 H 57.555806 q -11.14031,0 -15.183164,-3.77333 -3.953013,-3.86317 -3.953013,-14.64412 v -2.15618 l 13.476181,-2.78508 v 11.58951 H 110.7418 V 116.69442 H 60.520566 q -11.050469,0 -15.003482,-3.77333 -3.953013,-3.86317 -3.953013,-14.644119 v -7.366979 q 0,-10.691104 3.953013,-14.554276 3.953013,-3.953013 15.003482,-3.953013 h 43.393304 q 10.87079,0 15.00348,3.773331 4.1327,3.77333 4.1327,13.296498 v 1.886666 l -13.38634,2.874919 z"
           style="fill:#ffffff;stroke-width:4.59986973"
           id="path1665"
           inkscape:connector-curvature="0" /><path
           d="M 157.99828,150.38487 V 72.402703 h 78.52122 v 11.589516 h -63.78726 v 20.034591 h 38.45204 v 11.58951 h -38.45204 v 23.35872 h 64.50599 v 11.40983 z"
           style="fill:#ffffff;stroke-width:4.59986973"
           id="path1667"
           inkscape:connector-curvature="0" /><path
           d="M 302.55278,83.992219 V 150.38487 H 287.90866 V 83.992219 h -36.8349 V 72.402703 h 88.4936 v 11.589516 z"
           style="fill:#ffffff;stroke-width:4.59986973"
           id="path1669"
           inkscape:connector-curvature="0" /><path
           d="m 376.49211,72.402703 v 66.212967 h 56.95933 V 72.402703 h 14.91364 v 59.564717 q 0,10.78095 -4.04286,14.64412 -3.95301,3.77333 -15.09332,3.77333 h -48.33457 q -11.14031,0 -15.18316,-3.86317 -3.95302,-3.86317 -3.95302,-14.55428 V 72.402703 Z"
           style="fill:#ffffff;stroke-width:4.59986973"
           id="path1671"
           inkscape:connector-curvature="0" /><path
           d="m 543.86628,83.812536 h -44.4714 v 24.616494 h 44.4714 q 4.94127,0 6.82793,-1.61714 1.97651,-1.70699 1.97651,-5.74984 v -9.882535 q 0,-4.042854 -1.88667,-5.659996 -1.88666,-1.706983 -6.91777,-1.706983 z M 484.66092,150.38487 V 72.402703 h 65.85361 q 9.07396,0 13.02698,3.503807 4.04285,3.503807 4.04285,11.589516 v 17.429194 q 0,7.90603 -4.04285,11.40983 -3.95302,3.50381 -13.02698,3.50381 h -51.11965 v 30.54601 z"
           style="fill:#ffffff;stroke-width:4.59986973"
           id="path1673"
           inkscape:connector-curvature="0" /></g><path
         d="m 374,402.09524 h -16.85714 l -22.47619,22.47619 h -11.2381"
         inkscape:connector-curvature="0"
         id="path4730-2"
         style="opacity:0.5;fill:#ffffff;stroke:#ffcc00;stroke-width:2.80952382;stroke-linecap:butt;stroke-linejoin:miter;stroke-miterlimit:4;stroke-dasharray:none;stroke-opacity:1" /><g
         aria-label="scripts"
         style="font-style:normal;font-variant:normal;font-weight:normal;font-stretch:normal;font-size:632.23626709px;line-height:1.25;font-family:'BankGothic Lt BT';-inkscape-font-specification:'BankGothic Lt BT';letter-spacing:0px;word-spacing:0px;fill:#ffffff;fill-opacity:1;stroke:none;stroke-width:15.80590439"
         id="text1480"><path
           d="m -1695.4337,-510.14135 h -188.0039 v 69.45955 h 171.951 q 37.6625,0 51.2457,13.2745 13.8919,12.96578 13.8919,50.01087 v 32.10575 q 0,37.0451 -13.5832,50.31959 -13.2745,12.96578 -51.5544,12.96578 h -162.9984 q -38.2799,0 -52.1719,-12.96578 -13.5832,-13.27449 -13.5832,-50.31959 v -7.40902 l 46.3064,-9.56998 v 39.82348 h 202.2045 v -75.32503 h -172.5684 q -37.9712,0 -51.5544,-12.96578 -13.5832,-13.27449 -13.5832,-50.31959 v -25.31414 q 0,-36.73639 13.5832,-50.01088 13.5832,-13.5832 51.5544,-13.5832 h 149.1065 q 37.3538,0 51.5544,12.96578 14.2006,12.96578 14.2006,45.68895 v 6.48289 l -45.9976,9.87869 z"
           style="fill:#ffffff;stroke-width:15.80590439"
           id="path1781"
           inkscape:connector-curvature="0" /><path
           d="m -1298.1251,-510.14135 h -187.0777 v 187.69515 h 187.0777 v -63.90279 l 50.6283,9.56998 v 31.48833 q 0,36.73639 -13.8919,50.01088 -13.5832,13.27449 -51.8632,13.27449 h -157.4416 q -38.2799,0 -51.8631,-12.65707 -13.2745,-12.96579 -13.2745,-50.6283 v -141.08006 q 0,-37.35381 13.5832,-50.31959 13.5832,-13.27449 51.5544,-13.27449 h 157.4416 q 38.28,0 51.8632,13.5832 13.8919,13.27449 13.8919,50.01088 v 25.31414 l -50.6283,8.33515 z"
           style="fill:#ffffff;stroke-width:15.80590439"
           id="path1783"
           inkscape:connector-curvature="0" /><path
           d="m -945.88799,-510.75876 h -142.62361 v 86.43855 h 142.62361 q 16.979,0 22.84447,-5.55677 5.86548,-5.55676 5.86548,-21.60963 v -32.10575 q 0,-14.81804 -6.17419,-20.99222 -6.17418,-6.17418 -22.53576,-6.17418 z m -193.25191,228.75345 v -267.95951 h 215.47896 q 29.94479,0 42.91057,12.34836 13.27449,12.03966 13.27449,39.51477 v 59.88957 q 0,27.1664 -13.27449,39.20606 -12.96578,12.03965 -42.91057,12.03965 h -35.50154 l 118.23559,104.9611 h -67.6073 l -106.81331,-104.9611 h -73.1641 v 104.9611 z"
           style="fill:#ffffff;stroke-width:15.80590439"
           id="path1785"
           inkscape:connector-curvature="0" /><path
           d="m -702.3165,-282.00531 h -50.31959 V -549.3474 h 50.31959 z"
           style="fill:#ffffff;stroke-width:15.80590439"
           id="path1787"
           inkscape:connector-curvature="0" /><path
           d="m -376.31973,-510.75876 h -152.81101 v 84.58629 h 152.81101 q 16.979,0 23.46189,-5.55676 6.7916,-5.86547 6.7916,-19.75738 v -33.95801 q 0,-13.89191 -6.48289,-19.44867 -6.48289,-5.86547 -23.7706,-5.86547 z m -203.43931,228.75345 v -267.95951 h 226.28378 q 31.17962,0 44.76282,12.03965 13.89191,12.03966 13.89191,39.82348 v 59.88957 q 0,27.1664 -13.89191,39.20606 -13.5832,12.03965 -44.76282,12.03965 h -175.65548 v 104.9611 z"
           style="fill:#ffffff;stroke-width:15.80590439"
           id="path1789"
           inkscape:connector-curvature="0" /><path
           d="m -68.228021,-510.14135 v 228.13604 h -50.319589 v -228.13604 h -126.57073 v -39.82347 H 58.960134 v 39.82347 z"
           style="fill:#ffffff;stroke-width:15.80590439"
           id="path1791"
           inkscape:connector-curvature="0" /><path
           d="M 371.68248,-510.14135 H 183.67863 v 69.45955 h 171.95098 q 37.66251,0 51.24571,13.2745 13.89191,12.96578 13.89191,50.01087 v 32.10575 q 0,37.0451 -13.5832,50.31959 -13.27449,12.96578 -51.55442,12.96578 H 192.63119 q -38.27993,0 -52.17184,-12.96578 -13.5832,-13.27449 -13.5832,-50.31959 v -7.40902 l 46.30637,-9.56998 v 39.82348 h 202.20447 v -75.32503 h -172.5684 q -37.97122,0 -51.55442,-12.96578 -13.5832,-13.27449 -13.5832,-50.31959 v -25.31414 q 0,-36.73639 13.5832,-50.01088 13.5832,-13.5832 51.55442,-13.5832 H 351.9251 q 37.3538,0 51.55442,12.96578 14.20062,12.96578 14.20062,45.68895 v 6.48289 l -45.99766,9.87869 z"
           style="fill:#ffffff;stroke-width:15.80590439"
           id="path1793"
           inkscape:connector-curvature="0" /></g></g></g></svg>